<?xml version="1.0" standalone="no"?>
<!DOCTYPE svg PUBLIC "-//W3C//DTD SVG 20010904//EN"
 "http://www.w3.org/TR/2001/REC-SVG-20010904/DTD/svg10.dtd">
<svg version="1.0" xmlns="http://www.w3.org/2000/svg"
 width="750.000000pt" height="750.000000pt" viewBox="0 0 750.000000 750.000000"
 preserveAspectRatio="xMidYMid meet">
<metadata>
Created by potrace 1.14, written by Peter Selinger 2001-2017
</metadata>
<g transform="translate(0.000000,750.000000) scale(0.100000,-0.100000)"
fill="#000000" stroke="none">
<path d="M2350 5579 c-74 -14 -191 -71 -238 -116 -7 -7 -18 -13 -24 -13 -6 0
-9 -3 -6 -6 3 -3 -8 -20 -26 -37 -60 -62 -107 -146 -131 -237 -16 -60 -19
-183 -6 -245 14 -62 53 -165 63 -165 5 0 8 -5 8 -10 0 -25 78 -106 683 -711
350 -351 637 -644 637 -652 0 -19 -186 -393 -199 -401 -5 -4 -507 491 -1114
1098 -1077 1076 -1107 1105 -1181 1141 -180 87 -354 82 -526 -13 -126 -69
-238 -217 -269 -353 -13 -57 -13 -201 0 -259 15 -66 67 -169 113 -224 68 -82
2261 -2268 2311 -2304 65 -47 140 -79 230 -98 45 -10 155 -4 218 10 103 24
201 79 278 157 40 41 63 76 114 179 26 52 51 102 56 110 5 8 13 24 18 35 5 11
68 141 140 288 72 147 131 272 131 276 0 45 60 -8 518 -467 474 -474 542 -538
609 -575 107 -59 280 -81 393 -51 176 47 312 164 385 329 34 75 38 96 41 206
4 135 -38 264 -114 351 -15 18 -309 314 -654 659 -346 345 -628 635 -628 644
0 26 188 405 201 405 6 0 496 -484 1088 -1076 592 -592 1092 -1088 1111 -1103
19 -14 37 -28 40 -31 9 -9 84 -42 140 -62 69 -24 196 -30 276 -13 56 12 172
59 184 75 3 4 21 17 41 31 20 13 52 42 70 63 19 22 42 48 52 58 9 10 16 19 15
21 -1 1 6 13 14 27 34 52 69 180 70 254 1 116 -41 266 -87 313 -8 8 -15 18
-15 23 0 5 -425 435 -945 956 -520 520 -945 950 -945 956 0 5 -3 8 -7 6 -5 -2
-42 32 -84 74 -41 43 -74 78 -72 78 2 0 -14 15 -34 34 -21 19 -81 77 -134 129
-103 101 -156 137 -256 174 -237 86 -517 -13 -651 -231 -21 -33 -37 -62 -37
-65 -1 -3 -7 -17 -15 -31 -8 -14 -15 -27 -15 -30 -1 -3 -72 -148 -158 -324
-86 -175 -157 -322 -157 -327 0 -5 -9 -18 -20 -29 l-20 -20 -493 492 c-271
271 -511 507 -532 524 -53 41 -157 89 -223 103 -61 13 -167 13 -232 0z"/>
</g>
</svg>
